<svg width="10" height="10" viewBox="0 0 10 10" fill="none" xmlns="http://www.w3.org/2000/svg"><path d="M6.101 5l3.74-3.739a.544.544 0 000-.773L9.512.16A.542.542 0 009.126 0a.542.542 0 00-.387.16L5 3.9 1.261.16A.542.542 0 00.874 0a.542.542 0 00-.386.16L.16.488a.547.547 0 000 .773l3.739 3.74L.16 8.738a.544.544 0 00-.16.387c0 .147.057.284.16.387l.328.327c.103.104.24.16.386.16a.542.542 0 00.387-.16l3.74-3.738L8.738 9.84c.103.104.24.16.387.16a.543.543 0 00.387-.16l.327-.327a.543.543 0 00.16-.387.544.544 0 00-.16-.387L6.101 5z" fill="#fff"/></svg>